Coordinates
version=1
nRows=17
nColumns=38
inDegrees=no

Units are S.I. units (second, meters, Newtons, ...)
If the header above contains a line with 'inDegrees', this indicates whether rotational values are in degrees (yes) or radians (no).

endheader
time	pelvis_tilt	pelvis_list	pelvis_rotation	pelvis_tx	pelvis_ty	pelvis_tz	hip_flexion_r	hip_adduction_r	hip_rotation_r	knee_angle_r	ankle_angle_r	subtalar_angle_r	mtp_angle_r	hip_flexion_l	hip_adduction_l	hip_rotation_l	knee_angle_l	ankle_angle_l	subtalar_angle_l	mtp_angle_l	lumbar_extension	lumbar_bending	lumbar_rotation	arm_flex_r	arm_add_r	arm_rot_r	elbow_flex_r	pro_sup_r	wrist_flex_r	wrist_dev_r	arm_flex_l	arm_add_l	arm_rot_l	elbow_flex_l	pro_sup_l	wrist_flex_l	wrist_dev_l
0.61	0.279275	1.2211	-1.70925	0.529916	1.14907	1.08654	-0.351715	-0.143099	-0.1453	0.924191	-0.487393	0	0	-0.0447862	-0.00590871	-0.110026	0.397088	-0.232926	0	0	-0.483031	-0.0106765	-0.136031	0.633368	-0.496047	0.621554	1.10265	0.60993	0	0	0.363961	-0.49313	0.172799	1.16558	0.740392	0	0
0.62	0.271408	1.21706	-1.69975	0.534298	1.13881	1.08868	-0.332544	-0.14184	-0.132283	0.96226	-0.531061	0	0	-0.0546474	-0.00729579	-0.117318	0.407612	-0.23487	0	0	-0.490197	-0.00459669	-0.138041	0.638348	-0.498525	0.625949	1.10184	0.60607	0	0	0.36728	-0.491908	0.174254	1.1648	0.739797	0	0
0.63	0.26096	1.21433	-1.68792	0.538578	1.12857	1.09051	-0.311135	-0.138377	-0.119553	0.999708	-0.570282	0	0	-0.0634642	-0.00973728	-0.126047	0.419258	-0.232401	0	0	-0.495553	0.00282359	-0.139363	0.642832	-0.501236	0.629946	1.10156	0.603997	0	0	0.37031	-0.490676	0.176012	1.1639	0.73951	0	0
0.64	0.249268	1.21248	-1.6754	0.542645	1.11828	1.09215	-0.288718	-0.132854	-0.106595	1.03526	-0.598668	0	0	-0.0718975	-0.0127741	-0.135437	0.431294	-0.227949	0	0	-0.499479	0.0105857	-0.13978	0.645977	-0.503461	0.631911	1.10158	0.605824	0	0	0.372814	-0.489647	0.177957	1.16319	0.739383	0	0
0.65	0.236274	1.2111	-1.66211	0.546374	1.10793	1.09369	-0.266335	-0.124709	-0.0933053	1.06874	-0.595855	0	0	-0.080034	-0.0173034	-0.146325	0.444568	-0.217897	0	0	-0.502168	0.0184832	-0.14028	0.654114	-0.5086	0.646315	1.10104	0.588557	0	0	0.373701	-0.489219	0.178491	1.16307	0.737055	0	0
0.66	0.224165	1.20927	-1.64937	0.549752	1.09759	1.09542	-0.245684	-0.114686	-0.0814419	1.09718	-0.575272	0	0	-0.0905189	-0.0219343	-0.153474	0.452428	-0.213729	0	0	-0.505599	0.0253513	-0.140741	0.657084	-0.509636	0.649285	1.10047	0.587005	0	0	0.374944	-0.489259	0.179076	1.16337	0.735391	0	0
0.67	0.214474	1.20735	-1.6386	0.553106	1.0872	1.09723	-0.226198	-0.104112	-0.0712267	1.1215	-0.536723	0	0	-0.101901	-0.0259201	-0.158748	0.457637	-0.209917	0	0	-0.508801	0.031471	-0.142079	0.659714	-0.510122	0.652085	1.09975	0.585259	0	0	0.375426	-0.48955	0.179099	1.16401	0.733881	0	0
0.68	0.206583	1.20525	-1.62893	0.556476	1.07677	1.09909	-0.20775	-0.0935666	-0.0623526	1.1411	-0.497624	0	0	-0.113736	-0.0291273	-0.162024	0.460909	-0.207579	0	0	-0.512029	0.0372179	-0.144216	0.661528	-0.510097	0.653556	1.09936	0.584267	0	0	0.375452	-0.489984	0.178757	1.1649	0.733431	0	0
0.69	0.198974	1.20316	-1.61892	0.559731	1.06629	1.10101	-0.189589	-0.0827345	-0.0550024	1.15524	-0.470041	0	0	-0.125852	-0.0325759	-0.163415	0.463479	-0.206444	0	0	-0.5153	0.0428379	-0.146329	0.66163	-0.509935	0.652481	1.09987	0.584355	0	0	0.375704	-0.490276	0.178457	1.16559	0.734904	0	0
0.7	0.149939	1.24583	-1.6568	0.557879	1.04263	1.09845	-0.112033	-0.0666387	0.0435894	1.18765	-0.427647	0	0	-0.12657	-0.056563	-0.334049	0.45831	-0.201974	0	0	-0.442386	0.0369927	-0.0589247	0.624064	-0.535057	0.6547	1.10344	0.588059	0	0	0.341133	-0.444598	0.164192	1.13811	0.751307	0	0
0.71	0.14275	1.246	-1.64744	0.561185	1.03193	1.10014	-0.0926819	-0.0538425	0.0512713	1.19405	-0.385487	0	0	-0.137476	-0.0578568	-0.335289	0.45897	-0.200471	0	0	-0.443534	0.0420526	-0.0590403	0.61811	-0.53592	0.644387	1.10742	0.596367	0	0	0.342099	-0.441586	0.163217	1.13714	0.758117	0	0
0.72	0.134293	1.24584	-1.63656	0.564363	1.02139	1.10188	-0.0743989	-0.0407907	0.0562473	1.19557	-0.340096	0	0	-0.149277	-0.0590572	-0.335597	0.457792	-0.200464	0	0	-0.444449	0.0475149	-0.0612927	0.619006	-0.537068	0.64667	1.10771	0.591321	0	0	0.341635	-0.44068	0.162421	1.13691	0.75897	0	0
0.73	0.124197	1.24608	-1.62406	0.567396	1.011	1.10356	-0.056424	-0.0273429	0.0592556	1.19124	-0.316381	0	0	-0.160818	-0.060482	-0.335767	0.455761	-0.200989	0	0	-0.445324	0.0532905	-0.0630463	0.61877	-0.537431	0.645928	1.10809	0.59189	0	0	0.341921	-0.440154	0.162664	1.13646	0.758879	0	0
0.74	0.115199	1.2478	-1.61318	0.570264	1.00073	1.10494	-0.0370221	-0.0141862	0.0618868	1.18381	-0.277992	0	0	-0.170962	-0.0611951	-0.335997	0.452806	-0.200446	0	0	-0.44485	0.058318	-0.0640474	0.618092	-0.538041	0.644527	1.10885	0.591816	0	0	0.342693	-0.439381	0.162947	1.13549	0.760169	0	0
0.75	0.108367	1.25068	-1.60511	0.572977	0.990646	1.10607	-0.0164092	-0.00256198	0.0636791	1.17255	-0.243884	0	0	-0.179698	-0.0613453	-0.337259	0.449607	-0.200243	0	0	-0.443573	0.0622028	-0.0643075	0.617375	-0.538517	0.642509	1.10951	0.592612	0	0	0.344063	-0.43799	0.163007	1.13412	0.761055	0	0
0.76	0.101716	1.25435	-1.59821	0.575377	0.98069	1.10698	0.00490312	0.00847556	0.0653679	1.15735	-0.219551	0	0	-0.187268	-0.0617945	-0.339473	0.446927	-0.200312	0	0	-0.441731	0.0652787	-0.0637397	0.616822	-0.538346	0.640097	1.10969	0.593468	0	0	0.345638	-0.43652	0.162701	1.13268	0.76098	0	0
0.77	0.0960394	1.25839	-1.59293	0.5777	0.970777	1.10768	0.0262483	0.0185271	0.0678732	1.13941	-0.198772	0	0	-0.194286	-0.061892	-0.341925	0.444627	-0.200097	0	0	-0.439371	0.0678032	-0.0627601	0.616333	-0.538223	0.637591	1.10995	0.594615	0	0	0.347078	-0.43514	0.162397	1.13125	0.761018	0	0
